<svg width="185" height="34" viewBox="0 0 185 34" fill="none" xmlns="http://www.w3.org/2000/svg">
<rect y="34" width="34" height="34" rx="8" transform="rotate(-90 0 34)" fill="#0500FF"/>
<path d="M8 16.8333C8 15.6296 8.20493 14.4444 8.61478 13.2778C9.04245 12.0926 9.65723 11.037 10.4591 10.1111C11.261 9.18519 12.2411 8.43519 13.3994 7.86111C14.5577 7.28704 15.8763 7 17.3553 7C19.1017 7 20.6074 7.39815 21.8726 8.19445C22.7224 8.72183 23.4275 9.35482 23.9881 10.0934C24.4854 10.7487 24.243 11.6561 23.574 12.1348L23.2558 12.3626C22.5545 12.8645 21.5885 12.5658 20.9906 11.9444C20.6342 11.5556 20.251 11.25 19.8412 11.0278C19.4313 10.8056 19.0037 10.6481 18.5582 10.5556C18.1127 10.4444 17.6761 10.3889 17.2484 10.3889C16.3218 10.3889 15.511 10.5833 14.816 10.9722C14.1389 11.3611 13.5687 11.8704 13.1053 12.5C12.6599 13.1111 12.3213 13.8148 12.0896 14.6111C11.858 15.3889 11.7421 16.1667 11.7421 16.9444C11.7421 17.8148 11.8758 18.6574 12.1431 19.4722C12.4104 20.2685 12.7846 20.9722 13.2657 21.5833C13.7647 22.1944 14.3527 22.6852 15.0299 23.0556C15.7248 23.4259 16.4822 23.6111 17.3019 23.6111C17.7296 23.6111 18.1751 23.5556 18.6384 23.4444C19.1017 23.3333 19.5383 23.1574 19.9481 22.9167C20.3758 22.6759 20.7678 22.3704 21.1242 22C21.7054 21.3658 22.649 21.0113 23.3874 21.4527L23.7232 21.6535C24.4574 22.0923 24.782 23.0225 24.2736 23.7103C24.0978 23.9482 23.9034 24.1743 23.6903 24.3889C23.1378 24.9444 22.5052 25.4167 21.7925 25.8056C21.0975 26.1944 20.3491 26.4907 19.5472 26.6944C18.7453 26.8982 17.9612 27 17.195 27C15.8407 27 14.6022 26.7037 13.4796 26.1111C12.3569 25.5185 11.3857 24.75 10.566 23.8056C9.76415 22.8426 9.13155 21.7593 8.66824 20.5556C8.22275 19.3333 8 18.0926 8 16.8333Z" fill="white"/>
<path d="M40 16.7782C40 15.577 40.2125 14.3943 40.6376 13.23C41.0811 12.0473 41.7187 10.9939 42.5503 10.0699C43.3819 9.14588 44.3983 8.39743 45.5995 7.82454C46.8007 7.25165 48.1683 6.96521 49.7021 6.96521C51.5132 6.96521 53.0748 7.36254 54.3869 8.15719C55.7174 8.95183 56.7061 9.98673 57.3529 11.2619L54.4146 13.2854C54.1558 12.731 53.8417 12.269 53.4721 11.8994C53.1025 11.5113 52.7052 11.2064 52.2801 10.9847C51.8551 10.7629 51.4115 10.6058 50.9495 10.5134C50.4875 10.4025 50.0348 10.3471 49.5912 10.3471C48.6303 10.3471 47.7894 10.5411 47.0687 10.9292C46.3664 11.3173 45.7751 11.8255 45.2946 12.4538C44.8326 13.0637 44.4815 13.7659 44.2412 14.5606C44.001 15.3368 43.8808 16.1129 43.8808 16.8891C43.8808 17.7577 44.0194 18.5985 44.2967 19.4116C44.5739 20.2063 44.9619 20.9085 45.4609 21.5184C45.9784 22.1282 46.5882 22.618 47.2904 22.9876C48.0112 23.3572 48.7966 23.542 49.6467 23.542C50.0902 23.542 50.5522 23.4865 51.0327 23.3756C51.5132 23.2648 51.9659 23.0892 52.391 22.849C52.8345 22.6087 53.2411 22.3038 53.6107 21.9342C53.9803 21.5461 54.276 21.0841 54.4977 20.5482L57.6301 22.35C57.316 23.0892 56.8632 23.7453 56.2718 24.3181C55.6989 24.8725 55.0429 25.3438 54.3037 25.7319C53.583 26.12 52.8068 26.4156 51.9752 26.6189C51.1436 26.8222 50.3304 26.9238 49.5358 26.9238C48.1313 26.9238 46.8469 26.6282 45.6827 26.0368C44.5184 25.4454 43.5112 24.6785 42.6612 23.736C41.8295 22.775 41.1735 21.6939 40.693 20.4927C40.231 19.273 40 18.0349 40 16.7782Z" fill="black"/>
<path d="M66.5435 27.0347C65.3608 27.0347 64.2982 26.8315 63.3557 26.4249C62.4132 26.0183 61.6093 25.4732 60.944 24.7894C60.2972 24.0871 59.7982 23.2832 59.4471 22.3777C59.096 21.4722 58.9204 20.5205 58.9204 19.5225C58.9204 18.5061 59.096 17.5451 59.4471 16.6396C59.7982 15.7341 60.2972 14.9394 60.944 14.2557C61.6093 13.5534 62.4132 12.999 63.3557 12.5924C64.2982 12.1859 65.3608 11.9826 66.5435 11.9826C67.7263 11.9826 68.7796 12.1859 69.7036 12.5924C70.6461 12.999 71.4408 13.5534 72.0876 14.2557C72.7529 14.9394 73.2611 15.7341 73.6122 16.6396C73.9633 17.5451 74.1389 18.5061 74.1389 19.5225C74.1389 20.5205 73.9633 21.4722 73.6122 22.3777C73.2611 23.2832 72.7621 24.0871 72.1153 24.7894C71.4685 25.4732 70.6738 26.0183 69.7314 26.4249C68.7889 26.8315 67.7263 27.0347 66.5435 27.0347ZM62.7458 19.5225C62.7458 20.1693 62.8382 20.7607 63.023 21.2966C63.2263 21.8141 63.4943 22.2668 63.8269 22.6549C64.178 23.043 64.5846 23.3479 65.0466 23.5697C65.5086 23.773 66.0076 23.8746 66.5435 23.8746C67.0794 23.8746 67.5784 23.773 68.0404 23.5697C68.5024 23.3479 68.8997 23.043 69.2324 22.6549C69.5835 22.2668 69.8515 21.8048 70.0363 21.2689C70.2396 20.733 70.3412 20.1416 70.3412 19.4948C70.3412 18.8665 70.2396 18.2843 70.0363 17.7484C69.8515 17.2125 69.5835 16.7505 69.2324 16.3624C68.8997 15.9743 68.5024 15.6786 68.0404 15.4754C67.5784 15.2536 67.0794 15.1427 66.5435 15.1427C66.0076 15.1427 65.5086 15.2536 65.0466 15.4754C64.5846 15.6971 64.178 16.002 63.8269 16.3901C63.4943 16.7782 63.2263 17.2402 63.023 17.7761C62.8382 18.3121 62.7458 18.8942 62.7458 19.5225Z" fill="black"/>
<path d="M99.2104 26.7575H95.4959V18.6078C95.4959 17.4435 95.2926 16.5934 94.886 16.0575C94.498 15.5216 93.9528 15.2536 93.2505 15.2536C92.5113 15.2536 91.8183 15.54 91.1715 16.1129C90.5247 16.6673 90.0627 17.3973 89.7855 18.3028V26.7575H86.071V18.6078C86.071 17.4435 85.8677 16.5934 85.4611 16.0575C85.073 15.5216 84.5279 15.2536 83.8256 15.2536C83.1049 15.2536 82.4119 15.5308 81.7466 16.0852C81.0998 16.6396 80.6378 17.3696 80.3606 18.2751V26.7575H76.6461V12.2321H80.0002V14.9209C80.5361 13.9785 81.2661 13.2577 82.1901 12.7588C83.1326 12.2413 84.2045 11.9826 85.4057 11.9826C86.6254 11.9826 87.5679 12.2783 88.2332 12.8696C88.8984 13.461 89.3235 14.191 89.5083 15.0595C90.0997 14.0616 90.8481 13.3039 91.7536 12.7865C92.6592 12.2506 93.6941 11.9826 94.8583 11.9826C95.7454 11.9826 96.4753 12.1489 97.0482 12.4816C97.6211 12.8142 98.0646 13.2485 98.3788 13.7844C98.693 14.3203 98.9055 14.9302 99.0164 15.614C99.1457 16.2977 99.2104 16.9907 99.2104 17.693V26.7575Z" fill="black"/>
<path d="M125.009 26.7575H121.294V18.6078C121.294 17.4435 121.091 16.5934 120.684 16.0575C120.296 15.5216 119.751 15.2536 119.049 15.2536C118.31 15.2536 117.617 15.54 116.97 16.1129C116.323 16.6673 115.861 17.3973 115.584 18.3028V26.7575H111.869V18.6078C111.869 17.4435 111.666 16.5934 111.259 16.0575C110.871 15.5216 110.326 15.2536 109.624 15.2536C108.903 15.2536 108.21 15.5308 107.545 16.0852C106.898 16.6396 106.436 17.3696 106.159 18.2751V26.7575H102.444V12.2321H105.799V14.9209C106.334 13.9785 107.064 13.2577 107.988 12.7588C108.931 12.2413 110.003 11.9826 111.204 11.9826C112.424 11.9826 113.366 12.2783 114.031 12.8696C114.697 13.461 115.122 14.191 115.307 15.0595C115.898 14.0616 116.646 13.3039 117.552 12.7865C118.457 12.2506 119.492 11.9826 120.657 11.9826C121.544 11.9826 122.274 12.1489 122.847 12.4816C123.419 12.8142 123.863 13.2485 124.177 13.7844C124.491 14.3203 124.704 14.9302 124.815 15.614C124.944 16.2977 125.009 16.9907 125.009 17.693V26.7575Z" fill="black"/>
<path d="M134.979 27.0347C133.814 27.0347 132.761 26.8407 131.819 26.4526C130.876 26.046 130.072 25.5009 129.407 24.8171C128.742 24.1333 128.224 23.3387 127.855 22.4332C127.503 21.5276 127.328 20.5759 127.328 19.578C127.328 18.5431 127.503 17.5729 127.855 16.6673C128.206 15.7433 128.714 14.9394 129.379 14.2557C130.045 13.5534 130.848 12.999 131.791 12.5924C132.752 12.1859 133.824 11.9826 135.006 11.9826C136.189 11.9826 137.243 12.1859 138.167 12.5924C139.109 12.999 139.904 13.5442 140.551 14.2279C141.216 14.9117 141.715 15.7064 142.047 16.6119C142.399 17.5174 142.574 18.4599 142.574 19.4394C142.574 19.6796 142.565 19.9106 142.546 20.1324C142.546 20.3541 142.528 20.5389 142.491 20.6868H131.264C131.32 21.2597 131.458 21.7679 131.68 22.2114C131.902 22.6549 132.188 23.0338 132.539 23.3479C132.89 23.6621 133.288 23.9023 133.731 24.0687C134.175 24.235 134.637 24.3181 135.117 24.3181C135.857 24.3181 136.55 24.1426 137.196 23.7915C137.862 23.4218 138.314 22.9414 138.555 22.35L141.743 23.237C141.207 24.3459 140.347 25.2606 139.165 25.9814C138 26.6836 136.605 27.0347 134.979 27.0347ZM138.749 18.2751C138.656 17.1848 138.25 16.3162 137.529 15.6694C136.827 15.0041 135.967 14.6715 134.951 14.6715C134.452 14.6715 133.981 14.7639 133.537 14.9487C133.112 15.115 132.733 15.3552 132.401 15.6694C132.068 15.9836 131.791 16.3624 131.569 16.8059C131.366 17.2495 131.246 17.7392 131.209 18.2751H138.749Z" fill="black"/>
<path d="M153.486 15.4476C152.358 15.4661 151.351 15.6879 150.464 16.1129C149.577 16.5195 148.94 17.1386 148.552 17.9702V26.7575H144.837V12.2321H148.247V15.3368C148.505 14.8378 148.81 14.3943 149.161 14.0062C149.512 13.5996 149.891 13.2485 150.298 12.9528C150.704 12.6571 151.111 12.4354 151.518 12.2875C151.943 12.1212 152.349 12.038 152.737 12.038C152.941 12.038 153.088 12.038 153.181 12.038C153.292 12.038 153.393 12.0473 153.486 12.0658V15.4476Z" fill="black"/>
<path d="M153.911 19.4948C153.911 18.4784 154.087 17.5174 154.438 16.6119C154.789 15.7064 155.297 14.9117 155.963 14.2279C156.628 13.5442 157.432 12.999 158.374 12.5924C159.317 12.1859 160.379 11.9826 161.562 11.9826C163.151 11.9826 164.5 12.3245 165.609 13.0082C166.737 13.692 167.577 14.5883 168.132 15.6971L164.5 16.8059C164.186 16.27 163.77 15.8634 163.253 15.5862C162.736 15.2906 162.163 15.1427 161.534 15.1427C160.998 15.1427 160.499 15.2536 160.037 15.4754C159.575 15.6786 159.169 15.9743 158.818 16.3624C158.485 16.732 158.217 17.1848 158.014 17.7207C157.829 18.2566 157.737 18.848 157.737 19.4948C157.737 20.1416 157.838 20.733 158.042 21.2689C158.245 21.8048 158.513 22.2668 158.846 22.6549C159.197 23.043 159.603 23.3479 160.065 23.5697C160.527 23.773 161.017 23.8746 161.534 23.8746C162.2 23.8746 162.81 23.7083 163.364 23.3756C163.937 23.043 164.334 22.6364 164.556 22.156L168.187 23.2648C167.688 24.3736 166.866 25.2791 165.72 25.9814C164.574 26.6836 163.198 27.0347 161.59 27.0347C160.407 27.0347 159.344 26.8315 158.402 26.4249C157.459 26.0183 156.656 25.4732 155.99 24.7894C155.325 24.0871 154.808 23.2832 154.438 22.3777C154.087 21.4537 153.911 20.4927 153.911 19.4948Z" fill="black"/>
<path d="M177.074 27.0347C175.909 27.0347 174.856 26.8407 173.913 26.4526C172.971 26.046 172.167 25.5009 171.502 24.8171C170.837 24.1333 170.319 23.3387 169.949 22.4332C169.598 21.5276 169.423 20.5759 169.423 19.578C169.423 18.5431 169.598 17.5729 169.949 16.6673C170.301 15.7433 170.809 14.9394 171.474 14.2557C172.139 13.5534 172.943 12.999 173.886 12.5924C174.847 12.1859 175.919 11.9826 177.101 11.9826C178.284 11.9826 179.337 12.1859 180.261 12.5924C181.204 12.999 181.999 13.5442 182.645 14.2279C183.311 14.9117 183.81 15.7064 184.142 16.6119C184.493 17.5174 184.669 18.4599 184.669 19.4394C184.669 19.6796 184.66 19.9106 184.641 20.1324C184.641 20.3541 184.623 20.5389 184.586 20.6868H173.359C173.414 21.2597 173.553 21.7679 173.775 22.2114C173.997 22.6549 174.283 23.0338 174.634 23.3479C174.985 23.6621 175.383 23.9023 175.826 24.0687C176.27 24.235 176.732 24.3181 177.212 24.3181C177.951 24.3181 178.644 24.1426 179.291 23.7915C179.956 23.4218 180.409 22.9414 180.649 22.35L183.837 23.237C183.301 24.3459 182.442 25.2606 181.259 25.9814C180.095 26.6836 178.7 27.0347 177.074 27.0347ZM180.844 18.2751C180.751 17.1848 180.345 16.3162 179.624 15.6694C178.922 15.0041 178.062 14.6715 177.046 14.6715C176.547 14.6715 176.076 14.7639 175.632 14.9487C175.207 15.115 174.828 15.3552 174.496 15.6694C174.163 15.9836 173.886 16.3624 173.664 16.8059C173.461 17.2495 173.341 17.7392 173.304 18.2751H180.844Z" fill="black"/>
</svg>